<svg width="335" height="119" viewBox="0 0 335 119" fill="none" xmlns="http://www.w3.org/2000/svg">
<path d="M54.6715 38.776C56.2715 29.048 56.2715 21.88 56.2715 16.184V11.384H25.9355V18.104H47.9515C47.9515 23.352 47.7595 29.688 46.4155 38.072L54.6715 38.776ZM41.8075 28.28H33.4875V45.688C29.7755 45.752 26.1915 45.752 22.9275 45.752L23.6955 52.664C33.9355 52.6 47.1195 52.344 59.0875 50.296L58.6395 44.216C53.2635 44.856 47.5035 45.24 41.8075 45.432V28.28ZM77.7115 29.24H69.7755V5.496H61.3275V64.44H69.7755V36.28H77.7115V29.24ZM85.5785 11.64V18.36H105.227C104.011 31.416 97.4825 40.632 82.4425 47.864L86.8585 54.52C107.787 44.408 113.867 29.688 113.867 11.64H85.5785ZM122.891 5.496V64.44H131.403V5.496H122.891ZM151.174 19.192H164.678V12.344H142.854V51.256H146.95C154.502 51.256 160.774 51 167.942 49.656L167.302 42.808C161.67 43.832 156.678 44.152 151.174 44.28V19.192ZM183.75 5.496V28.216H178.438V6.648H170.566V61.752H178.438V35H183.75V64.504H191.75V5.496H183.75Z" fill="#594031"/>
<path d="M143.108 68.45H162.808V74.9H143.108V68.45ZM156.258 88.6V80.15H169.308V56.1H162.808V63.25H143.108V56.1H136.558V80.15H149.658V88.6H132.158V93.95H173.858V88.6H156.258ZM215.404 74.5H189.604V62.4H215.054V57.05H183.004V79.75H215.404V74.5ZM178.154 88.4V93.8H219.854V88.4H178.154ZM247.8 70.85H242.65C243.75 67.1 244.15 63.05 244.15 58.7H226.1V63.95H237.6C236.8 72.95 232.75 79.6 223.55 85.1L227.3 89.75C233.8 85.95 238 81.4 240.6 76.15H247.8V97.25H253.95V54.25H247.8V70.85ZM257.5 53.2V99.25H263.75V53.2H257.5ZM301.746 53.25V79.35H308.396V53.25H301.746ZM277.746 81.4V98.75H308.396V81.4H277.746ZM301.946 86.55V93.6H284.246V86.55H301.946ZM283.346 55.35C276.196 55.35 270.796 59.95 270.796 66.45C270.796 72.9 276.196 77.5 283.346 77.5C290.496 77.5 295.846 72.9 295.846 66.45C295.846 59.95 290.496 55.35 283.346 55.35ZM283.346 60.85C286.796 60.85 289.396 62.95 289.396 66.45C289.396 69.9 286.796 72 283.346 72C279.846 72 277.246 69.9 277.246 66.45C277.246 62.95 279.846 60.85 283.346 60.85Z" fill="white"/>
</svg>