<svg width="478" height="181" viewBox="0 0 478 181" fill="none" xmlns="http://www.w3.org/2000/svg">
<path d="M202.273 104.52H233.793V114.84H202.273V104.52ZM223.313 136.76V123.24H244.193V84.76H233.793V96.2H202.273V84.76H191.793V123.24H212.753V136.76H184.753V145.32H251.473V136.76H223.313ZM317.946 114.2H276.666V94.84H317.386V86.28H266.106V122.6H317.946V114.2ZM258.346 136.44V145.08H325.066V136.44H258.346ZM369.78 108.36H361.54C363.3 102.36 363.94 95.88 363.94 88.92H335.06V97.32H353.46C352.18 111.72 345.7 122.36 330.98 131.16L336.98 138.6C347.38 132.52 354.1 125.24 358.26 116.84H369.78V150.6H379.62V81.8H369.78V108.36ZM385.3 80.12V153.8H395.3V80.12H385.3ZM456.094 80.2V121.96H466.734V80.2H456.094ZM417.694 125.24V153H466.734V125.24H417.694ZM456.414 133.48V144.76H428.094V133.48H456.414ZM426.654 83.56C415.214 83.56 406.574 90.92 406.574 101.32C406.574 111.64 415.214 119 426.654 119C438.094 119 446.654 111.64 446.654 101.32C446.654 90.92 438.094 83.56 426.654 83.56ZM426.654 92.36C432.174 92.36 436.334 95.72 436.334 101.32C436.334 106.84 432.174 110.2 426.654 110.2C421.054 110.2 416.894 106.84 416.894 101.32C416.894 95.72 421.054 92.36 426.654 92.36Z" fill="white"/>
<path d="M64.6117 58.4C67.1117 43.2 67.1117 32 67.1117 23.1V15.6H19.7117V26.1H54.1117C54.1117 34.3 53.8117 44.2 51.7117 57.3L64.6117 58.4ZM44.5117 42H31.5117V69.2C25.7117 69.3 20.1117 69.3 15.0117 69.3L16.2117 80.1C32.2117 80 52.8117 79.6 71.5117 76.4L70.8117 66.9C62.4117 67.9 53.4117 68.5 44.5117 68.8V42ZM100.612 43.5H88.2117V6.4H75.0117V98.5H88.2117V54.5H100.612V43.5ZM112.904 16V26.5H143.604C141.704 46.9 131.504 61.3 108.004 72.6L114.904 83C147.604 67.2 157.104 44.2 157.104 16H112.904ZM171.204 6.4V98.5H184.504V6.4H171.204ZM215.396 27.8H236.496V17.1H202.396V77.9H208.796C220.596 77.9 230.396 77.5 241.596 75.4L240.596 64.7C231.796 66.3 223.996 66.8 215.396 67V27.8ZM266.296 6.4V41.9H257.996V8.2H245.696V94.3H257.996V52.5H266.296V98.6H278.796V6.4H266.296Z" fill="#674938"/>
</svg>
